<?xml version="1.0" encoding="UTF-8" standalone="no"?><svg xmlns:dc="http://purl.org/dc/elements/1.1/" xmlns:cc="http://creativecommons.org/ns#" xmlns:rdf="http://www.w3.org/1999/02/22-rdf-syntax-ns#" xmlns:svg="http://www.w3.org/2000/svg" xmlns="http://www.w3.org/2000/svg" xmlns:sodipodi="http://sodipodi.sourceforge.net/DTD/sodipodi-0.dtd" xmlns:inkscape="http://www.inkscape.org/namespaces/inkscape" width="300" height="300" viewBox="0 0 30.72 30.719719" preserveAspectRatio="xMidYMid" version="1.1" id="svg4" sodipodi:docname="phoenix-logo.svg" inkscape:version="0.92.5 (2060ec1f9f, 2020-04-08)" inkscape:export-filename="/home/quarkex/phoenix-logo.png" inkscape:export-xdpi="96" inkscape:export-ydpi="96"><metadata id="metadata10"><rdf:RDF><cc:Work rdf:about=""><dc:format>image/svg+xml</dc:format><dc:type rdf:resource="http://purl.org/dc/dcmitype/StillImage" /></cc:Work></rdf:RDF></metadata><defs id="defs8" /><sodipodi:namedview pagecolor="#ffffff" bordercolor="#666666" borderopacity="1" objecttolerance="10" gridtolerance="10" guidetolerance="10" inkscape:pageopacity="0" inkscape:pageshadow="2" inkscape:window-width="2736" inkscape:window-height="1654" id="namedview6" showgrid="false" inkscape:zoom="3.1246755" inkscape:cx="138.67576" inkscape:cy="145.71593" inkscape:window-x="0" inkscape:window-y="0" inkscape:window-maximized="1" inkscape:current-layer="svg4" /><g id="g4528" transform="matrix(0.09472541,0,0,0.09472541,4.5543466,7.8848498)"><circle style="fill:#fd4f00;fill-opacity:1;stroke-width:0.17328154" r="162.15289" cy="78.898254" cx="114.07343" id="path12" /><path style="fill:#ffffff" id="path2" d="m 96.135,122.038 c -1.128,-0.203 -1.57,-0.28 -2.012,-0.362 -14.288,-2.657 -23.32,-11.303 -27.6,-24.895 -2.668,-8.472 2.18,-14.711 11.066,-15.122 7.276,-0.337 12.256,3.845 16.66,8.711 5.677,6.274 10.881,12.973 16.457,19.341 8.028,9.167 17.487,15.07 30.429,13.248 11.605,-1.634 21.718,-6.291 30.518,-13.956 1.323,-1.152 2.774,-2.156 4.167,-3.229 l -0.878,-1.035 c -7.387,2.294 -14.921,3.065 -22.619,2.678 -11.648,-0.586 -22.747,-3.018 -32.678,-9.413 -9.062,-5.836 -15.745,-13.656 -18.922,-24.101 -2.566,-8.438 2.686,-14.341 11.43,-13.121 3.457,0.482 6.367,2.039 8.979,4.247 2.127,1.796 4.167,3.7 6.336,5.442 10.206,8.201 24.467,8.657 37.422,-0.247 C 143.592,70.127 129.102,58.412 116.375,43.565 111.394,37.754 106.531,31.839 101.447,26.12 91.61,15.053 80.697,5.303 65.754,1.977 46.666,-2.272 28.238,0.505 10.55,8.606 7.023,10.221 3.636,12.099 0,15.125 c 1.8,0 2.782,0.022 3.762,-0.003 8.918,-0.23 15.601,3.733 20.421,11.028 3.508,5.309 5.161,11.313 6.421,17.49 1.87,9.167 0.902,18.513 1.982,27.722 2.776,23.675 14.876,40.196 37.406,48.656 8.262,3.103 16.736,4.136 26.143,2.02 z M 39.196,14.041 c -3.56,0.898 -6.405,-0.539 -9.337,-3.506 5.021,-1.251 9.449,-1.736 14.207,-1.923 -0.389,3.089 -2.211,4.759 -4.87,5.429 z m 116.658,138.251 c -0.31,-2.279 -2.257,-3.283 -3.788,-4.475 -6.772,-5.271 -14.692,-7.137 -23.089,-7.292 -5.011,-0.092 -9.97,-0.466 -14.696,-2.223 -2.166,-0.805 -4.589,-1.839 -4.534,-4.638 0.055,-2.84 2.526,-3.643 4.775,-4.315 1.841,-0.55 3.741,-0.901 5.837,-1.391 -5.324,-3.412 -10.525,-3.885 -17.455,-1.098 -10.909,4.386 -21.664,3.866 -32.539,-0.061 -6.14,-2.216 -11.589,-5.695 -17.262,-8.776 l -0.155,0.107 0.147,-0.102 c -0.14,-0.428 -0.394,-0.439 -0.72,-0.2 l 0.445,0.39 c 4.705,7.711 11.061,13.915 18.241,19.217 13.828,10.21 28.932,16.299 46.605,13.597 a 243.203,243.203 0 0 1 17.216,-2.014 c 7.218,-0.583 14.095,1.448 20.972,3.274 z M 122.535,41.673 c -0.382,-0.277 -0.749,-0.972 -1.529,-0.253 6.358,8.6 14.526,14.94 24.361,18.931 15.873,6.441 31.983,7.543 48.46,1.859 12.792,-4.412 21.991,-0.101 26.768,12.319 0.691,-14.416 -7.79,-24.92 -21.299,-26.979 -7.6,-1.158 -14.617,1.363 -21.736,3.428 -19.811,5.744 -38.221,2.908 -55.025,-9.305 z m 98.737,56.228 c 2.582,0.217 5.162,0.451 7.743,0.677 -5.832,-5.123 -12.94,-5.529 -20.131,-5.12 -10.95,0.622 -18.839,6.937 -26.031,14.482 -6.337,6.65 -12.063,14.11 -21.52,16.782 0.158,0.284 0.199,0.426 0.243,0.426 1.272,0.019 2.547,0.079 3.816,0.021 13.735,-0.622 26.674,-3.519 36.967,-13.487 3.241,-3.139 6.142,-6.626 9.271,-9.884 2.61,-2.717 5.775,-4.223 9.642,-3.897 z M 189.365,80.879 c -10.25,0.896 -19.154,5.136 -27.517,10.727 -6.437,4.303 -13.321,6.339 -21.057,4.993 -1.361,-0.237 -2.732,-0.414 -4.098,-0.619 l -0.047,0.572 c 0.492,0.253 0.967,0.549 1.479,0.752 1.289,0.51 2.559,1.124 3.897,1.442 14.886,3.539 29.136,1.726 41.984,-6.573 8.098,-5.231 16.481,-6.222 25.567,-4.871 0.918,0.137 1.832,0.304 2.754,0.39 0.854,0.081 1.746,0.93 2.899,0.011 -7.943,-5.738 -16.499,-7.642 -25.861,-6.824 z M 152.731,46.086 c 5.377,0.186 10.73,-0.518 16.354,-3.859 -1.647,0.146 -2.346,0.143 -3.016,0.277 -7.748,1.544 -14.703,-0.146 -20.898,-5.044 -2.273,-1.798 -4.584,-3.548 -6.886,-5.309 -9.126,-6.98 -19.591,-9.315 -31.038,-9.117 0.185,0.563 0.196,0.949 0.395,1.149 12.455,12.598 26.87,21.275 45.089,21.903 z m 90.142,64.638 c -7.708,-7.645 -18.052,-8.63 -27.624,-1.958 6.336,0.285 11.092,2.306 14.949,6.3 1.365,1.413 2.78,2.8 4.307,4.032 5.832,4.704 15.719,4.93 21.495,0.566 -6.785,-2.648 -6.785,-2.648 -13.127,-8.94 z m -76.767,58.545 c -6.774,-12.609 -18.159,-15.454 -31.311,-14.608 3.888,1.078 7.519,2.737 10.851,5.063 3.061,2.137 5.637,4.783 8.176,7.493 5.031,5.369 12.883,8.664 18.086,7.55 -2.389,-1.506 -4.511,-3.096 -5.802,-5.498 z m 63.031,-70.431 c 0.002,-0.08 0.004,-0.161 0.009,-0.245 l -0.02,0.021 0.022,-0.024 -0.133,-0.012 c 0.026,0.024 0.054,0.043 0.08,0.067 z m -72.907,53.751 a 36.032,36.032 0 0 0 -0.267,-0.151 0.463,0.463 0 0 0 0.056,0.159 c 0.018,0.03 0.138,-0.004 0.211,-0.008 z m -0.267,-0.151 c -0.008,-0.041 -0.015,-0.083 -0.026,-0.124 l -0.031,0.038 0.031,-0.037 -0.083,-0.023 c 0.005,0.034 0.017,0.062 0.021,0.097 z" inkscape:connector-curvature="0" /></g></svg>
